<?xml version="1.0" encoding="UTF-8" standalone="no"?>
<!DOCTYPE svg PUBLIC "-//W3C//DTD SVG 1.1//EN" "http://www.w3.org/Graphics/SVG/1.1/DTD/svg11.dtd">
<svg width="100%" height="100%" viewBox="0 0 1080 1080" version="1.1" xmlns="http://www.w3.org/2000/svg" xmlns:xlink="http://www.w3.org/1999/xlink" xml:space="preserve" xmlns:serif="http://www.serif.com/" style="fill-rule:evenodd;clip-rule:evenodd;stroke-linejoin:round;stroke-miterlimit:2;">
    <g id="Artboard1" transform="matrix(1.13498,0,0,1.17241,-7.83745,1.61919)">
        <rect x="6.905" y="-1.381" width="951.56" height="921.176" style="fill:none;"/>
        <g transform="matrix(0.881074,0,0,0.852941,6.90537,-1.38107)">
            <path d="M315.379,668.192L77.28,133.995L158.479,133.995L356.558,578.674L561.11,133.995L629.357,133.995C629.357,133.995 711.713,313.029 711.713,313.029L791.729,133.995L869.51,133.995C869.51,133.995 751.327,399.148 751.327,399.148L1002.88,946.005L922.704,946.005L920.571,941.319C920.571,941.319 835.404,754.176 820.754,721.985C787.766,721.985 607.434,721.985 607.434,721.985L507.585,946.005L439.204,946.005L354.238,755.377L267.771,946.005L187.585,946.005L315.379,668.192ZM324.161,668.245L200.071,938.005L262.615,938.005L354.302,735.869L444.397,938.005L502.392,938.005L602.241,713.985L825.903,713.985L927.852,938.005L990.396,938.005L742.546,399.2L857.186,141.995L796.916,141.995L711.817,332.4L624.231,141.995L566.236,141.995L356.44,598.072L153.285,141.995L89.604,141.995L324.161,668.245ZM408.073,713.985L541.273,713.985L474.562,863.25L408.073,713.985ZM420.394,721.985L474.574,843.617L528.935,721.985L420.394,721.985ZM682.302,398.44L563.128,665.087L386.408,665.087L594.686,205.915L682.302,398.44ZM673.526,398.47L594.698,225.255L398.822,657.087L557.94,657.087L673.526,398.47ZM803.65,665.087L624.036,665.087L712.908,465.694L803.65,665.087ZM791.22,657.087L712.984,485.175C712.984,485.175 636.36,657.087 636.36,657.087L791.22,657.087Z" style="fill:rgb(238,238,238);"/>
            <path d="M324.161,668.245L89.604,141.995L153.285,141.995L356.44,598.072L566.236,141.995L624.231,141.995L711.817,332.4L796.916,141.995L857.186,141.995L742.546,399.2L990.396,938.005L927.852,938.005L825.903,713.985L602.241,713.985L502.392,938.005L444.397,938.005L354.302,735.869L262.615,938.005L200.071,938.005L324.161,668.245ZM682.302,398.44L594.686,205.915L386.408,665.087L563.128,665.087L682.302,398.44ZM803.65,665.087L712.908,465.694L624.036,665.087L803.65,665.087ZM408.073,713.985L474.562,863.25L541.273,713.985L408.073,713.985Z"/>
        </g>
    </g>
</svg>
